<?xml version="1.0" encoding="utf-8"?>
<!-- Generator: Adobe Illustrator 25.0.0, SVG Export Plug-In . SVG Version: 6.00 Build 0)  -->
<svg version="1.1" id="Camada_1" xmlns="http://www.w3.org/2000/svg" xmlns:xlink="http://www.w3.org/1999/xlink" x="0px" y="0px"
	 viewBox="0 0 509 514" style="enable-background:new 0 0 509 514;" xml:space="preserve">
<style type="text/css">
	.st0{fill:#CB784C;}
	.st1{fill:#CE774A;}
	.st2{fill:#CF7648;}
	.st3{fill:#CD7748;}
	.st4{fill:#C77954;}
	.st5{fill:#CE764B;}
	.st6{fill:#D17843;}
	.st7{fill:#DEB198;}
	.st8{fill:#D1764B;}
	.st9{fill:#CF7847;}
	.st10{fill:#D27749;}
	.st11{fill:#C87952;}
	.st12{fill:#CE7752;}
	.st13{fill:#CF784D;}
	.st14{fill:#CF774B;}
	.st15{fill:#DDB19F;}
	.st16{fill:#CD794D;}
	.st17{fill:#CC7750;}
	.st18{fill:#CC7549;}
	.st19{fill:#DEB59C;}
	.st20{fill:#CC7A4C;}
	.st21{fill:#CE7C52;}
	.st22{fill:#CC7B4D;}
	.st23{fill:#D37F54;}
	.st24{fill:#CF8057;}
	.st25{fill:#E0B49D;}
	.st26{fill:#DEAD93;}
	.st27{fill:#D47E52;}
	.st28{fill:#D27D52;}
	.st29{fill:#D59069;}
	.st30{fill:#D6845B;}
	.st31{fill:#D9926E;}
	.st32{fill:#DCA789;}
</style>
<g>
	<path class="st0" d="M206.9,321.13c-2.83-0.06-5.66-0.05-8.49-0.19c-6.71-0.33-9.18-3.26-8.75-10.79c9.81,7.4,19.22,4.1,28.64-0.62
		c13.49-6.76,27.65-11.26,42.76-12.75c24.69-2.43,47.12,3.97,67.87,17.02c4.64,2.92,9.21,6.05,13.34,9.63
		c8.87,7.68,17.89,11.14,28.32,1.96c1.26,4.87-1.43,7.08-4.23,9.02c-6.15,4.26-12.4,8.31-17.45,14.01
		c-7.27,8.21-11.65,17.66-11.12,28.58c1,20.71-4.21,40.58-7.26,60.75c-0.89,5.9-1.56,11.87-3.58,17.56
		c-2.85,8.03-8.53,13.23-16.93,13.33c-21.79,0.27-43.33,4.98-65.22,3.3c-15.01-1.15-29.54-4.05-44.33-10.97
		c7.33-1.97,13.54-0.89,19.53,0.56c15.73,3.8,31.47,7.08,47.8,5.14c11.23-1.33,22.42-3.03,33.78-2.82c2,0.04,4,0.04,5.99,0.15
		c8.75,0.47,10.03-0.29,13.14-8.72c10.04-27.2,13.82-55.38,13.1-84.26c-0.52-4.4-0.6-8.79,0.03-13.19
		c2.91-4.45,5.99-8.79,8.68-13.36c3.72-6.32,3.26-10.47-2.36-14.92c-36.38-28.81-73.18-37.51-117.83-16.79
		c-3.2,1.49-5.52,3.64-6.37,7.15C213.35,323.35,210.1,322.04,206.9,321.13z"/>
	<path class="st1" d="M374.91,161.13c8.61,12.66,12.52,26.71,11.87,41.94c-0.29,6.77,0.07,13.04,3.92,19.12
		c2.18,3.44,2.47,8.07,3.59,12.06c1.74-2.04,3.66-4.06,5.32-6.28c4.71-6.29,3.12-13.32,2.04-20.2c-1.62-10.3-1.83-20.26,5.61-28.8
		c2.28-2.62,1.02-5.32-0.3-7.89c-16.65-32.62-36.75-62.9-61.09-90.32c-3.85-4.34-7.8-8.58-12.72-13.98
		c6.94,0.49,12.26,1.96,15.86,6.49c24.99,31.42,49.21,63.36,65.68,100.36c2.99,6.71,1.95,9.66-4.16,13.23
		c-4.53,2.65-6.84,6.53-4.8,11.25c6.85,15.86,2.01,30-4.69,44.45c-6.15,13.26-9.24,27.64-12.96,41.76
		c-2.63,9.96-5.43,19.87-8.3,29.76c-1.16,3.99-2.61,7.94-7,9.72c-1.08-1.26-0.02-2.29,0.29-3.23c7.83-23.49,12.69-47.55,13.51-72.33
		c0.66-20.08-1.92-39.85-6.57-59.35c-1.44-6.04-4.55-11.18-10.17-14.19c-3.21-1.72-3.08-4.87-4.2-7.52c1.43-1.88,3.92-0.38,5.5-1.76
		C372.77,164.3,373.13,162.08,374.91,161.13z"/>
	<path class="st2" d="M161.99,295.87c9.2-6.27,10.73-14.98,9.15-25.43c-1.37-9.09-3.69-17.1-11.75-22.55
		c-1.87-1.27-3.44-3.22-4.69-5.15c-6.69-10.31-16.36-11.45-27.24-9.15c-0.63,0.13-1.27,0.15-2.15,0.25
		c7.6-7.39,22.52-6.86,29.93,0.86c2.09,2.18,3.6,4.76,5.14,7.34c4.03,6.77,10.79,7.98,16.85,2.89c6.27-5.26,8.18-12.35,7.52-20.21
		c-0.49-5.81-1.87-11.46-3.45-17.08c-1.73-6.15,0.18-10.05,4.92-11.27c1.33-0.35,2.98-0.82,2.56,1.45
		c-2.28,12.27,1.37,24.57-0.37,36.88c-0.83,5.92-3.48,10.42-7.93,13.83c-5.61,4.3-8.28,9.27-7.61,16.67
		c0.71,7.81,1.27,15.58,3.29,23.16c1.38,5.2,3.75,9.94,7.76,13.73c1.82,1.72,3.51,3.54,2.98,6.58c-3.72-2.05-6.54-4.89-9.59-7.43
		c-4.18-3.48-8.72-5.57-14.24-3.21C162.13,297.61,161.42,297.06,161.99,295.87z"/>
	<path class="st3" d="M165,311.98c4.65,6.12,5.84,13.33,5.99,20.68c0.22,10.8,0.05,21.62,0.04,32.43
		c-0.01,6.18,0.26,12.36,2.66,18.14c2.33,5.6,1.02,10.37-2.58,14.83c-2.91,3.62-6.28,6.86-8.68,10.91
		c-5.44,9.14-4.33,16.5,3.61,23.53c1.69,1.5,4.04,2.53,4.1,5.31c0.2,1.29,1.33,2.92-1.19,3.2c-3.2-2.38-6.54-4.58-9.56-7.17
		c-8.26-7.08-9.51-14.34-4.38-23.98c4.43-8.32,4.39-8.58-2.49-15.18c-4.32-4.14-4.69-4.85-5.08-10.02c4.29,0.7,6.7,3.94,9.53,6.54
		c2.48,2.29,4.9,4.84,8.68,2.51c3.61-2.22,3.97-5.54,2.75-9.17c-2.15-6.42-2.6-12.96-2.15-19.67c1.12-16.99,0.24-33.91-2.34-50.73
		C163.57,313.06,163.06,311.91,165,311.98z"/>
	<path class="st4" d="M208.2,156.96c-0.53-13.07-0.46-25.3,3.23-37.15c3.78-12.15,11.84-19.88,24.6-21.97
		c23.02-3.78,45.4-2.32,66.39,9.01c1.85,1,3.9,1.77,5.49,3.99c-3.01,0.46-5.37-0.83-7.79-1.4c-12.12-2.85-23.91-7.24-36.28-8.77
		c-17.58-2.18-32.84,3.1-44.99,16.34c-5.05,5.51-7.8,11.83-6.98,19.54c0.4,3.79,0.29,7.64,0.19,11.46
		C211.97,151.14,211.07,154.06,208.2,156.96z"/>
	<path class="st5" d="M129,130.98c-0.31,9.98-5.57,17.18-13.13,22.99c-14.77,11.35-24.72,25.96-29.44,43.97
		c-3.23,12.32-3.85,24.95-3.22,38.56c-2.12-3.02-2.14-5.75-2.73-8.24c-0.66-2.74-1.04-5.56-1.31-8.37
		c-1.96-20.79,3.51-39.26,17.58-54.87c10.47-11.61,20.96-23.2,32.35-33.94L129,130.98z"/>
	<path class="st6" d="M374.91,161.13c-0.35,2.02-0.99,3.86-2.97,4.89c-2.66-2.44-6.67-1.84-9.39-4.16
		c-3.81-5.33-6.82-11.63-14.65-12.08c-3.04-0.76-6.21,0.31-9.24-0.64c-2.11,0.21-4.23,0.58-7.12-0.73c5.3-0.67,9.77-1.23,15.7-1.98
		c-13.66-10.29-27.6-19.11-36.09-33.63c3.76-0.73,6-0.31,9.27,1.65c3.04,1.82,5.68,4.17,7.66,7.05c6.96,10.16,17.62,15.4,27.8,21.33
		C363.69,147.38,371.03,152.47,374.91,161.13z"/>
	<path class="st7" d="M208.66,320.97c2.12-0.13,4.25-0.13,6.31-0.72c0.51-0.15,1.02,0.22,1.05,0.75c0.44,6.42,2.39,11.95,7.88,16.37
		c9.31,7.49,10.56,18.51,10.91,29.42c0.44,13.62,0.02,27.27,3.16,40.69c1.37,5.84,3.49,11.4,6.18,17.62
		c0.32,0.73-0.48,1.45-1.18,1.07c-2.56-1.4-4.32-3.01-5.76-5.01c-4.71-6.53-6.24-13.71-5.65-21.76c1.38-18.7-2.3-37.42-10.07-54.48
		c-3.64-7.99-7.38-15.99-13.42-22.56C207.61,321.86,207.96,321.02,208.66,320.97z"/>
	<path class="st8" d="M176.96,86.79c-4.93,3.66-9.57,7.81-14.86,10.85c-5.84,3.36-10.01,7.91-13.55,13.48
		c-3.74,5.89-8.24,11.27-13.41,16c-1.79,1.64-3.41,3.66-6.13,3.85c0,0,0.09,0.09,0.09,0.09c1.16-6.27,5.23-10.95,8.91-15.76
		c4.9-6.41,10-12.68,15.25-18.81c5.59-6.51,12.35-10.98,21.44-10.56C175.63,85.74,176.8,84.92,176.96,86.79z"/>
	<path class="st9" d="M110.02,316.18c15.9,19.57,25.12,42.67,35.31,65.25C129.46,361.89,117.64,340.15,110.02,316.18z"/>
	<path class="st10" d="M286.69,137.17c-8.15,0-16.29-0.86-24.46-0.15c-12.48,1.09-20.46,5.33-32.46,17.49
		c0.47-10.48,9.67-19.32,22.11-21.55c12.66-2.27,24.82,0.35,36.98,3.34C288.77,138.18,287.59,137.33,286.69,137.17z"/>
	<path class="st11" d="M161.99,295.87c0.36,0.73,0.72,1.45,1.09,2.18c-0.06,3.3-0.12,6.59-0.17,9.89c-0.23,0-0.46-0.01-0.69-0.01
		c-3.43-7.46-10.22-10.01-17.44-11.94c-5.13-1.37-10.41-2.36-15.03-5.18c-1.67-1.02-3.43-2.04-4.34-4.61
		c11.38,1.37,22.79,1.24,32,9.02C159,296.57,160.39,296.18,161.99,295.87z"/>
	<path class="st12" d="M213.19,62.99c10-14.19,29.35-20.79,44.54-15.12C241.09,48.39,229.12,60.47,213.19,62.99z"/>
	<path class="st13" d="M289.53,52c16.98-10.54,27.22,3.37,40.04,10.86c-4.56,1.59-8.17,0.33-11.56-1.06
		c-3.82-1.57-7.41-3.7-11.11-5.57C301.45,53.47,295.85,51.24,289.53,52z"/>
	<path class="st14" d="M105.73,308.36c-10.02-11.48-12.7-25.47-14.27-39.85C101.36,279.95,103.89,294.06,105.73,308.36z"/>
	<path class="st15" d="M301.53,427.03c5.18-13.11,10.28-26.03,15.54-39.34c0.34-0.85,1.61-0.63,1.62,0.28
		c0.2,12.51-7.28,32.45-15.82,39.98C302.2,428.55,301.2,427.86,301.53,427.03z"/>
	<path class="st16" d="M176.96,86.79c-0.75-0.28-1.51-0.57-2.26-0.85c4.14-0.35,6.69-3.3,9.51-5.8c6.13-5.46,12.8-10.01,20.72-12.49
		c0.94-0.29,1.84-0.82,3.23-0.02c-6.21,10.23-14.98,16.49-26.83,18.35C179.86,86.21,178.41,86.52,176.96,86.79z"/>
	<path class="st17" d="M207.99,159.97c1.02,15.36-7.18,25.04-17.25,34.12C189.8,187.84,193.46,180.65,207.99,159.97z"/>
	<path class="st18" d="M344.14,202.04c1.77-9.31-3.13-13.99-10.04-17.43c-4.91-2.44-10.01-4.51-14.59-7.6
		c-2.76-1.86-5.17-4.01-6.04-7.68c10.64,5.89,22.26,10.12,30.98,18.97C348.15,192.05,347.84,196.31,344.14,202.04z"/>
	<path class="st19" d="M333.37,357.59c0.28,0.14,0.46,0.44,0.46,0.76c-0.01,4.22-0.02,8.45-0.03,12.67
		c-1.36-2.49-0.87-5.24-0.75-7.82c0.17-3.62-1.34-4.54-4.68-4.41c-8.29,0.32-16.61,0.76-24.53-2.67c-2-0.87-3.92-1.79-6.07-3.5
		c-0.69-0.55-0.17-1.64,0.7-1.47C310.81,353.64,322.7,352.23,333.37,357.59z"/>
	<path class="st20" d="M280.31,158.86c-13.71-2.42-25.56,0.56-37.55,6.13C248.18,153.32,266.45,150.34,280.31,158.86z"/>
	<path class="st21" d="M275.09,249.09c13.85-2.89,27.51-6.83,41.78-7.28c2.71,0.17,5.72-1.89,8.04,1.12
		c-12.48,2.14-24.95,4.3-37.43,6.39c-2.43,0.41-4.9,0.57-7.35,0.85C278.37,250.17,276.29,251.69,275.09,249.09z"/>
	<path class="st22" d="M362.56,161.86c2.23,0.38,4.51-0.05,6.74,0.75c1.76,0.64,2.87,1.4,2.65,3.4c-1.4,4.28-4.4-0.28-6.31,1.13
		c-4.36-0.69-8.72-1.38-13.87-2.2C355.58,162.66,359.05,162.2,362.56,161.86z"/>
	<path class="st23" d="M119.08,240.02c-2.33,10.69-3.12,21.51-2.86,32.51c-1.86-3.55-2.51-7.43-2.16-11.34
		c0.67-7.5,0.03-15.28,3.99-22.2C118.99,238.74,119.45,238.97,119.08,240.02z"/>
	<path class="st24" d="M340.08,241.8c6.89,0.37,13.28,2,18.25,7.4c-7.58-2.81-15.07-5.88-23.25-6.32
		C336.27,240.32,338.33,241.78,340.08,241.8z"/>
	<path class="st25" d="M338.2,241.49c-1.61,0.62-1.48-0.11-3.14,1.38c-3.38,0.02-6.77,0.04-10.15,0.05c0,0,0,0-0.01,0
		c-2.45-1.99-5.42-0.26-8.04-1.11C324.6,240.3,330.46,240.95,338.2,241.49z"/>
	<path class="st26" d="M275.35,249.38c0.06,0.05,0.12,0.1,0.18,0.15c0.65,0.49,0.26,1.52-0.55,1.49c-2.03-0.07-4.08-0.46-6.15-0.62
		c1.92-0.4,3.83-0.8,5.75-1.2C274.85,249.14,275.15,249.19,275.35,249.38z"/>
	<path class="st27" d="M338.66,149.14c3.09,0.03,6.25-0.89,9.24,0.64C344.81,149.72,341.69,150.17,338.66,149.14z"/>
	<path class="st28" d="M119.36,282.35c-2.61-2.25-2.71-4.03-1.88-6.09C117.98,277.88,118.48,279.5,119.36,282.35z"/>
	<path class="st29" d="M162.21,307.92c0.23-0.01,0.46-0.01,0.69,0.01c0.7,1.35,1.4,2.7,2.1,4.05c-0.36,0.72-0.72,1.43-1.08,2.15
		C162.79,312.22,162.55,310.06,162.21,307.92z"/>
	<path class="st30" d="M286.69,137.17c0.72-0.29,1.45-0.58,2.17-0.86c1.07,0.31,2.14,0.63,4.49,1.32
		C290.19,138.26,288.43,137.95,286.69,137.17z"/>
	<path class="st31" d="M119.08,240.02l-0.63-0.63c-0.24-0.25-0.31-0.62-0.17-0.93c0.42-0.93,1.06-1.94,1.84-1.33
		C121.34,238.08,119.74,239.12,119.08,240.02z"/>
	<path class="st32" d="M168.95,441.01c1.31-0.73,0.83-2.12,1.19-3.2c0.85,1.15,1.24,2.47,0.45,3.69
		C170.26,442.02,169.39,441.61,168.95,441.01z"/>
</g>
</svg>
